<svg width="19" height="18" viewBox="0 0 19 18" fill="none" xmlns="http://www.w3.org/2000/svg">
<g clip-path="url(#clip0_1_37)">
<path fill-rule="evenodd" clip-rule="evenodd" d="M8.51885 14.804C9.3973 14.804 10.1097 15.5203 10.1097 16.4033C10.1097 17.2866 9.39721 18.0026 8.51885 18.0026C7.64034 18.0026 6.92794 17.2866 6.92794 16.4033C6.92794 15.5203 7.64034 14.804 8.51885 14.804ZM8.18181 16.4033C8.18181 16.1018 8.54569 15.9511 8.7572 16.1638C8.88879 16.2959 8.88879 16.5108 8.7572 16.6431C8.54578 16.8555 8.18181 16.7048 8.18181 16.4033Z" fill="black"/>
<path fill-rule="evenodd" clip-rule="evenodd" d="M15.9429 14.804C16.8214 14.804 17.5337 15.5203 17.5337 16.4033C17.5337 17.2866 16.8214 18.0026 15.9429 18.0026C15.0644 18.0026 14.352 17.2866 14.352 16.4033C14.352 15.5203 15.0644 14.804 15.9429 14.804ZM15.6057 16.4033C15.6057 16.1018 15.9698 15.9511 16.1813 16.1638C16.3129 16.2959 16.3129 16.5108 16.1813 16.6431C15.9698 16.8555 15.6057 16.7048 15.6057 16.4033Z" fill="black"/>
<path fill-rule="evenodd" clip-rule="evenodd" d="M14.1471 11.3012C16.1909 11.0324 17.8766 9.64809 18.547 7.73245C19.3936 5.73022 18.9055 4.78326 18.3237 4.51561L12.0386 3.69916L3.80767 2.49171L3.03901 1.93231C3.14705 1.49624 3.05602 1.04366 2.82196 0.693018C2.34746 -0.0174449 1.38967 -0.208182 0.682365 0.269168C-0.0244366 0.746179 -0.214169 1.70922 0.260747 2.42027C0.701975 3.08112 1.56758 3.30135 2.26751 2.92449L3.05209 3.49553L6.28709 11.5016C6.17923 11.626 6.08721 11.7673 6.01321 11.9246C5.45165 13.12 6.33267 14.4757 7.63968 14.4757H17.4632C17.8094 14.4757 18.09 14.1935 18.09 13.8454C18.09 13.4974 17.8094 13.2151 17.4632 13.2151H7.63968C7.43931 13.2151 7.27874 13.1291 7.17331 12.9603C6.9803 12.6509 7.15328 12.2566 7.49034 12.1767L14.1471 11.3012ZM12.3554 5.02878L8.93621 4.51561L9.55584 6.66545L12.7088 6.75357L12.5667 5.93258C12.5667 5.93258 12.4448 5.3587 12.3554 5.02878ZM1.78388 1.39228C1.64502 1.18427 1.30737 1.236 1.25592 1.49927C1.20379 1.76651 1.49753 1.94031 1.70494 1.80046C1.83676 1.71149 1.87188 1.52421 1.78388 1.39228ZM8.77502 10.7442C8.98634 10.7147 9.19699 10.6853 9.40575 10.6578L8.60979 7.89538L6.15375 7.82673L7.40343 10.9193C7.8558 10.8725 8.31694 10.8082 8.77485 10.7443H8.77487L8.77502 10.7442ZM9.92082 7.93194L10.6591 10.4932L13.2958 10.1463L12.9271 8.01594L9.92082 7.93194ZM5.64019 6.55585L8.24456 6.62863L7.57817 4.31636L4.5562 3.87288L5.64019 6.55585ZM13.7509 5.16907L13.9548 6.75357C13.9548 6.75357 16.1232 6.89569 16.8424 6.89569C17.1966 6.44964 17.5959 5.52735 16.7458 5.44965C16.4953 5.42675 16.1884 5.40176 15.8636 5.37527C15.0857 5.31189 14.2052 5.24012 13.7509 5.16907ZM14.532 9.94673L14.1471 8.01594L16.939 8.07111C16.388 8.90021 15.5172 9.68187 14.532 9.94673Z" fill="black"/>
</g>
<defs>
<clipPath id="clip0_1_37">
<rect width="19" height="18" fill="white"/>
</clipPath>
</defs>
</svg>
