<?xml version="1.0" encoding="utf-8"?><svg width="19" height="18" fill="none" xmlns="http://www.w3.org/2000/svg" viewBox="0 0 19 18"><g clip-path="url(#aclip0_1_37)" fill-rule="evenodd" clip-rule="evenodd" fill="#000"><path d="M8.519 14.804c.878 0 1.59.716 1.59 1.6 0 .883-.712 1.599-1.59 1.599-.879 0-1.591-.716-1.591-1.6 0-.883.712-1.599 1.59-1.599zm-.337 1.6a.337.337 0 11.575.24.337.337 0 01-.575-.24zM15.943 14.804c.878 0 1.59.716 1.59 1.6 0 .883-.712 1.599-1.59 1.599-.879 0-1.591-.716-1.591-1.6 0-.883.712-1.599 1.59-1.599zm-.337 1.6a.337.337 0 11.575.24.337.337 0 01-.575-.24zM14.147 11.301a5.391 5.391 0 004.4-3.569c.847-2.002.358-2.949-.223-3.216l-6.285-.817-8.231-1.207-.769-.56A1.566 1.566 0 002.822.693 1.537 1.537 0 00.682.269 1.555 1.555 0 00.261 2.42c.441.661 1.307.881 2.007.504l.784.572 3.235 8.006c-.108.124-.2.265-.274.423-.561 1.195.32 2.55 1.627 2.55h9.823a.629.629 0 00.627-.63c0-.348-.28-.63-.627-.63H7.64c-.2 0-.361-.086-.467-.255a.52.52 0 01.317-.783l6.657-.876zM12.355 5.03l-3.419-.513.62 2.15 3.153.088-.142-.821s-.122-.574-.212-.904zM1.784 1.392c-.139-.208-.477-.156-.528.107a.292.292 0 00.449.301.3.3 0 00.079-.408zm6.991 9.352c.211-.03.422-.059.63-.086L8.61 7.895l-2.456-.068 1.25 3.092c.452-.046.913-.11 1.37-.175h.001zm1.146-2.812l.738 2.561 2.637-.347-.369-2.13-3.006-.084zM5.64 6.556l2.604.073-.667-2.313-3.022-.443L5.64 6.556zm8.11-1.387l.204 1.585s2.168.142 2.887.142c.355-.446.754-1.369-.096-1.446-.25-.023-.558-.048-.882-.075-.778-.063-1.659-.135-2.113-.206zm.781 4.778l-.385-1.931 2.792.055c-.551.83-1.422 1.61-2.407 1.876z"/></g><defs><clipPath id="aclip0_1_37"><path fill="#fff" d="M0 0h19v18H0z"/></clipPath></defs></svg>