<?xml version="1.0" encoding="utf-8"?><svg width="18" height="16" fill="none" xmlns="http://www.w3.org/2000/svg" viewBox="0 0 18 16"><path fill-rule="evenodd" clip-rule="evenodd" d="M17.473 5.495h-.208L15.138.325a.527.527 0 00-.685-.286l-3.646 1.418a2.231 2.231 0 00-1.28-.843 3.027 3.027 0 00-1.054 0C7.5.844 6.778 1.698 6.778 2.712c0 .103.008.205.023.304L3.156 4.433a.52.52 0 00-.294.286L.735 9.889H.527a.52.52 0 00-.527.513c0 1.495 1.25 2.71 2.787 2.71h1.13c1.536 0 2.786-1.215 2.786-2.71a.52.52 0 00-.527-.513h-.208l-1.93-4.694 3.155-1.227a2.23 2.23 0 001.28.843v8.13H7.87c-1.536 0-2.771 1.052-2.771 2.546a.52.52 0 00.527.513h6.778c.291 0 .528-.197.528-.351v-.162c0-1.494-1.266-2.547-2.802-2.547h-.603V4.81c.972-.23 1.695-1.083 1.695-2.098 0-.103-.008-.204-.022-.303l2.502-.973-1.67 4.06h-.208a.52.52 0 00-.527.512c0 1.494 1.25 2.71 2.787 2.71h1.13C16.75 8.718 18 7.502 18 6.008a.52.52 0 00-.527-.513zM2.787 12.086h1.13a1.73 1.73 0 001.65-1.17h-.003l-.002-.001H1.137a1.73 1.73 0 001.65 1.171zM1.87 9.89h2.961L3.352 6.29l-1.48 3.6zm4.364 5.085h5.56c-.223-.678-.894-1.008-1.665-1.008H7.87c-.771 0-1.411.33-1.635 1.008zM7.833 2.712c0 .626.523 1.135 1.167 1.135s1.167-.509 1.167-1.135S9.643 1.577 9 1.577c-.644 0-1.167.51-1.167 1.135zm8.296 2.783l-1.48-3.599-1.481 3.6h2.96zm-2.045 2.197h1.13a1.73 1.73 0 001.649-1.17l-.004-.001h-4.425a1.73 1.73 0 001.65 1.171z" fill="#000"/></svg>