<?xml version="1.0" encoding="utf-8"?><svg width="24" height="24" fill="none" xmlns="http://www.w3.org/2000/svg" viewBox="0 0 24 24"><path d="M21.054 18.56l-4.535-4.534a7.379 7.379 0 001.078-3.852c0-4.1-3.553-7.653-7.654-7.653A7.422 7.422 0 002.52 9.944c0 4.1 3.553 7.653 7.652 7.653a7.38 7.38 0 003.738-1.013l4.56 4.561a1.144 1.144 0 001.614 0l1.132-1.131c.445-.446.283-1.008-.162-1.454zM4.804 9.944a5.138 5.138 0 015.14-5.14c2.838 0 5.368 2.53 5.368 5.37a5.14 5.14 0 01-5.14 5.14c-2.839-.002-5.367-2.532-5.367-5.37z" fill="#000"/></svg>